<mxfile host="Electron" modified="2023-06-10T22:59:02.331Z" agent="Mozilla/5.0 (Windows NT 10.0; Win64; x64) AppleWebKit/537.36 (KHTML, like Gecko) draw.io/21.2.8 Chrome/112.0.5615.165 Electron/24.2.0 Safari/537.36" etag="FWi-TaiJd46SC9pi13WM" version="21.2.8" type="device">
  <diagram name="Page-1" id="7e0a89b8-554c-2b80-1dc8-d5c74ca68de4">
    <mxGraphModel dx="875" dy="518" grid="1" gridSize="10" guides="1" tooltips="1" connect="1" arrows="1" fold="1" page="1" pageScale="1" pageWidth="1100" pageHeight="850" background="none" math="0" shadow="0">
      <root>
        <mxCell id="0" />
        <mxCell id="1" parent="0" />
        <mxCell id="wKgUK0UTeyyjZvhtWHKd-3" style="edgeStyle=orthogonalEdgeStyle;rounded=0;orthogonalLoop=1;jettySize=auto;html=1;entryX=0;entryY=0.5;entryDx=0;entryDy=0;entryPerimeter=0;endArrow=none;endFill=0;fontSize=16;" edge="1" parent="1" source="wKgUK0UTeyyjZvhtWHKd-9" target="wKgUK0UTeyyjZvhtWHKd-2">
          <mxGeometry relative="1" as="geometry">
            <mxPoint x="212.0000000000001" y="520" as="sourcePoint" />
            <Array as="points">
              <mxPoint x="240" y="520" />
              <mxPoint x="240" y="415" />
            </Array>
          </mxGeometry>
        </mxCell>
        <mxCell id="wKgUK0UTeyyjZvhtWHKd-5" style="edgeStyle=orthogonalEdgeStyle;rounded=0;orthogonalLoop=1;jettySize=auto;html=1;endArrow=none;endFill=0;fontSize=16;" edge="1" parent="1" source="wKgUK0UTeyyjZvhtWHKd-2" target="wKgUK0UTeyyjZvhtWHKd-4">
          <mxGeometry relative="1" as="geometry" />
        </mxCell>
        <mxCell id="wKgUK0UTeyyjZvhtWHKd-7" style="edgeStyle=orthogonalEdgeStyle;rounded=0;orthogonalLoop=1;jettySize=auto;html=1;endArrow=none;endFill=0;fontSize=16;" edge="1" parent="1" source="wKgUK0UTeyyjZvhtWHKd-2" target="wKgUK0UTeyyjZvhtWHKd-15">
          <mxGeometry relative="1" as="geometry">
            <mxPoint x="399.5" y="550" as="targetPoint" />
          </mxGeometry>
        </mxCell>
        <mxCell id="wKgUK0UTeyyjZvhtWHKd-2" value="47&amp;nbsp;&lt;b style=&quot;font-size: 16px;&quot;&gt;立&lt;/b&gt;" style="verticalLabelPosition=bottom;shadow=0;align=center;html=1;verticalAlign=top;strokeWidth=1;shape=mxgraph.electrical.resistors.resistor_2;rounded=1;comic=0;labelBackgroundColor=none;fontFamily=Verdana;fontSize=16;" vertex="1" parent="1">
          <mxGeometry x="262" y="405" width="100" height="20" as="geometry" />
        </mxCell>
        <mxCell id="wKgUK0UTeyyjZvhtWHKd-11" style="edgeStyle=orthogonalEdgeStyle;rounded=0;orthogonalLoop=1;jettySize=auto;html=1;exitX=1;exitY=0.5;exitDx=0;exitDy=0;exitPerimeter=0;endArrow=none;endFill=0;entryX=0.5;entryY=0;entryDx=0;entryDy=0;entryPerimeter=0;fontSize=16;" edge="1" parent="1" source="wKgUK0UTeyyjZvhtWHKd-4" target="wKgUK0UTeyyjZvhtWHKd-16">
          <mxGeometry relative="1" as="geometry">
            <mxPoint x="630" y="480" as="targetPoint" />
          </mxGeometry>
        </mxCell>
        <mxCell id="wKgUK0UTeyyjZvhtWHKd-4" value="47&amp;nbsp;&lt;b style=&quot;font-size: 16px;&quot;&gt;立&lt;/b&gt;" style="verticalLabelPosition=bottom;shadow=0;align=center;html=1;verticalAlign=top;strokeWidth=1;shape=mxgraph.electrical.resistors.resistor_2;rounded=1;comic=0;labelBackgroundColor=none;fontFamily=Verdana;fontSize=16;" vertex="1" parent="1">
          <mxGeometry x="450" y="405" width="100" height="20" as="geometry" />
        </mxCell>
        <mxCell id="wKgUK0UTeyyjZvhtWHKd-9" value="" style="shape=waypoint;sketch=0;fillStyle=solid;size=6;pointerEvents=1;points=[];fillColor=none;resizable=0;rotatable=0;perimeter=centerPerimeter;snapToPoint=1;verticalAlign=middle;spacingBottom=0;spacingTop=0;fontFamily=Verdana;fontSize=16;labelPosition=center;verticalLabelPosition=middle;align=left;spacingRight=0;spacingLeft=6;" vertex="1" parent="1">
          <mxGeometry x="262" y="500" width="40" height="40" as="geometry" />
        </mxCell>
        <mxCell id="wKgUK0UTeyyjZvhtWHKd-15" value="" style="shape=waypoint;sketch=0;fillStyle=solid;size=6;pointerEvents=1;points=[];fillColor=none;resizable=0;rotatable=0;perimeter=centerPerimeter;snapToPoint=1;verticalAlign=top;spacingBottom=0;spacingTop=-5;fontFamily=Verdana;fontSize=16;" vertex="1" parent="1">
          <mxGeometry x="380" y="500" width="40" height="40" as="geometry" />
        </mxCell>
        <mxCell id="wKgUK0UTeyyjZvhtWHKd-16" value="" style="pointerEvents=1;verticalLabelPosition=bottom;shadow=0;align=center;html=1;verticalAlign=top;shape=mxgraph.electrical.signal_sources.signal_ground;fontSize=16;" vertex="1" parent="1">
          <mxGeometry x="580" y="505" width="45" height="30" as="geometry" />
        </mxCell>
        <mxCell id="wKgUK0UTeyyjZvhtWHKd-17" value="Vin (5V)&lt;br style=&quot;font-size: 16px;&quot;&gt;initial pH sensor" style="text;html=1;align=center;verticalAlign=middle;resizable=0;points=[];autosize=1;strokeColor=none;fillColor=none;fontSize=16;" vertex="1" parent="1">
          <mxGeometry x="262" y="500" width="140" height="50" as="geometry" />
        </mxCell>
        <mxCell id="wKgUK0UTeyyjZvhtWHKd-18" value="Vout (2.5V)" style="text;html=1;align=center;verticalAlign=middle;resizable=0;points=[];autosize=1;strokeColor=none;fillColor=none;fontSize=16;" vertex="1" parent="1">
          <mxGeometry x="400" y="505" width="100" height="30" as="geometry" />
        </mxCell>
        <mxCell id="wKgUK0UTeyyjZvhtWHKd-31" style="edgeStyle=orthogonalEdgeStyle;rounded=0;orthogonalLoop=1;jettySize=auto;html=1;endArrow=none;endFill=0;fontSize=16;" edge="1" parent="1" source="wKgUK0UTeyyjZvhtWHKd-25" target="wKgUK0UTeyyjZvhtWHKd-16">
          <mxGeometry relative="1" as="geometry" />
        </mxCell>
        <mxCell id="wKgUK0UTeyyjZvhtWHKd-40" style="edgeStyle=orthogonalEdgeStyle;rounded=0;orthogonalLoop=1;jettySize=auto;html=1;entryX=0;entryY=0.5;entryDx=0;entryDy=0;entryPerimeter=0;endArrow=none;endFill=0;fontSize=16;" edge="1" parent="1" source="wKgUK0UTeyyjZvhtWHKd-25" target="wKgUK0UTeyyjZvhtWHKd-34">
          <mxGeometry relative="1" as="geometry" />
        </mxCell>
        <mxCell id="wKgUK0UTeyyjZvhtWHKd-25" value="47&amp;nbsp;&lt;b style=&quot;font-size: 16px;&quot;&gt;立&lt;/b&gt;" style="verticalLabelPosition=bottom;shadow=0;align=center;html=1;verticalAlign=top;strokeWidth=1;shape=mxgraph.electrical.resistors.resistor_2;rounded=1;comic=0;labelBackgroundColor=none;fontFamily=Verdana;fontSize=16;" vertex="1" parent="1">
          <mxGeometry x="660" y="405" width="100" height="20" as="geometry" />
        </mxCell>
        <mxCell id="wKgUK0UTeyyjZvhtWHKd-37" style="edgeStyle=orthogonalEdgeStyle;rounded=0;orthogonalLoop=1;jettySize=auto;html=1;exitX=0;exitY=0.5;exitDx=0;exitDy=0;exitPerimeter=0;endArrow=none;endFill=0;entryX=0.536;entryY=-0.075;entryDx=0;entryDy=0;entryPerimeter=0;fontSize=16;" edge="1" parent="1" source="wKgUK0UTeyyjZvhtWHKd-34" target="wKgUK0UTeyyjZvhtWHKd-41">
          <mxGeometry relative="1" as="geometry">
            <Array as="points">
              <mxPoint x="820" y="415" />
            </Array>
          </mxGeometry>
        </mxCell>
        <mxCell id="wKgUK0UTeyyjZvhtWHKd-39" style="edgeStyle=orthogonalEdgeStyle;rounded=0;orthogonalLoop=1;jettySize=auto;html=1;exitX=1;exitY=0.5;exitDx=0;exitDy=0;exitPerimeter=0;endArrow=none;endFill=0;entryX=0.65;entryY=0.446;entryDx=0;entryDy=0;entryPerimeter=0;fontSize=16;" edge="1" parent="1" source="wKgUK0UTeyyjZvhtWHKd-34" target="wKgUK0UTeyyjZvhtWHKd-42">
          <mxGeometry relative="1" as="geometry">
            <Array as="points">
              <mxPoint x="1000" y="415" />
              <mxPoint x="1000" y="520" />
            </Array>
          </mxGeometry>
        </mxCell>
        <mxCell id="wKgUK0UTeyyjZvhtWHKd-34" value="47&amp;nbsp;&lt;b style=&quot;font-size: 16px;&quot;&gt;立&lt;/b&gt;" style="verticalLabelPosition=bottom;shadow=0;align=center;html=1;verticalAlign=top;strokeWidth=1;shape=mxgraph.electrical.resistors.resistor_2;rounded=1;comic=0;labelBackgroundColor=none;fontFamily=Verdana;fontSize=16;" vertex="1" parent="1">
          <mxGeometry x="850" y="405" width="100" height="20" as="geometry" />
        </mxCell>
        <mxCell id="wKgUK0UTeyyjZvhtWHKd-35" value="Vout (2.5V)" style="text;html=1;align=center;verticalAlign=middle;resizable=0;points=[];autosize=1;strokeColor=none;fillColor=none;fontSize=16;" vertex="1" parent="1">
          <mxGeometry x="720" y="505" width="100" height="30" as="geometry" />
        </mxCell>
        <mxCell id="wKgUK0UTeyyjZvhtWHKd-41" value="" style="shape=waypoint;sketch=0;fillStyle=solid;size=6;pointerEvents=1;points=[];fillColor=none;resizable=0;rotatable=0;perimeter=centerPerimeter;snapToPoint=1;verticalAlign=top;spacingBottom=0;spacingTop=-5;fontFamily=Verdana;fontSize=16;" vertex="1" parent="1">
          <mxGeometry x="800" y="500" width="40" height="40" as="geometry" />
        </mxCell>
        <mxCell id="wKgUK0UTeyyjZvhtWHKd-42" value="" style="shape=waypoint;sketch=0;fillStyle=solid;size=6;pointerEvents=1;points=[];fillColor=none;resizable=0;rotatable=0;perimeter=centerPerimeter;snapToPoint=1;verticalAlign=top;spacingBottom=0;spacingTop=-5;fontFamily=Verdana;fontSize=16;" vertex="1" parent="1">
          <mxGeometry x="940" y="500" width="40" height="40" as="geometry" />
        </mxCell>
        <mxCell id="wKgUK0UTeyyjZvhtWHKd-47" value="Vin (5V)&lt;br style=&quot;font-size: 16px;&quot;&gt;final pH sensor" style="text;html=1;align=center;verticalAlign=middle;resizable=0;points=[];autosize=1;strokeColor=none;fillColor=none;fontSize=16;" vertex="1" parent="1">
          <mxGeometry x="840" y="495" width="130" height="50" as="geometry" />
        </mxCell>
      </root>
    </mxGraphModel>
  </diagram>
</mxfile>
